<mxfile host="app.diagrams.net" modified="2023-08-22T02:44:27.761Z" agent="Mozilla/5.0 (Windows NT 10.0; Win64; x64) AppleWebKit/537.36 (KHTML, like Gecko) Chrome/116.0.0.0 Safari/537.36" etag="ELuBm-5KolhSUmyVKqid" version="21.6.8" type="github">
  <diagram name="Page-1" id="_yWX9LNVRB2RfufT-h8L">
    <mxGraphModel dx="880" dy="478" grid="1" gridSize="10" guides="1" tooltips="1" connect="1" arrows="1" fold="1" page="1" pageScale="1" pageWidth="850" pageHeight="1100" math="0" shadow="0">
      <root>
        <mxCell id="0" />
        <mxCell id="1" parent="0" />
        <mxCell id="nI7Jx7L9hMB6-QlNPKPZ-1" value="" style="rounded=0;whiteSpace=wrap;html=1;direction=south;" vertex="1" parent="1">
          <mxGeometry x="260" y="190" width="310" height="490" as="geometry" />
        </mxCell>
        <mxCell id="nI7Jx7L9hMB6-QlNPKPZ-3" value="Player 2(user)" style="shape=umlActor;verticalLabelPosition=bottom;verticalAlign=top;html=1;outlineConnect=0;" vertex="1" parent="1">
          <mxGeometry x="680" y="370" width="50" height="90" as="geometry" />
        </mxCell>
        <mxCell id="nI7Jx7L9hMB6-QlNPKPZ-7" value="&lt;font style=&quot;font-size: 18px;&quot;&gt;&lt;i&gt;game tebak angka&lt;/i&gt;&lt;/font&gt;" style="text;html=1;strokeColor=none;fillColor=none;align=center;verticalAlign=middle;whiteSpace=wrap;rounded=0;strokeWidth=17;perimeterSpacing=1;" vertex="1" parent="1">
          <mxGeometry x="260" y="190" width="200" height="40" as="geometry" />
        </mxCell>
        <mxCell id="nI7Jx7L9hMB6-QlNPKPZ-8" value="Random Angka" style="ellipse;whiteSpace=wrap;html=1;" vertex="1" parent="1">
          <mxGeometry x="355" y="250" width="120" height="80" as="geometry" />
        </mxCell>
        <mxCell id="nI7Jx7L9hMB6-QlNPKPZ-9" value="Tebak Angka" style="ellipse;whiteSpace=wrap;html=1;" vertex="1" parent="1">
          <mxGeometry x="355" y="480" width="120" height="80" as="geometry" />
        </mxCell>
        <mxCell id="nI7Jx7L9hMB6-QlNPKPZ-10" value="Player 1(komputer)" style="shape=umlActor;verticalLabelPosition=bottom;verticalAlign=top;html=1;outlineConnect=0;" vertex="1" parent="1">
          <mxGeometry x="110" y="370" width="50" height="90" as="geometry" />
        </mxCell>
        <mxCell id="nI7Jx7L9hMB6-QlNPKPZ-14" value="" style="endArrow=none;html=1;rounded=0;entryX=0;entryY=0.5;entryDx=0;entryDy=0;" edge="1" parent="1" target="nI7Jx7L9hMB6-QlNPKPZ-8">
          <mxGeometry width="50" height="50" relative="1" as="geometry">
            <mxPoint x="170" y="420" as="sourcePoint" />
            <mxPoint x="250" y="390" as="targetPoint" />
            <Array as="points">
              <mxPoint x="270" y="300" />
            </Array>
          </mxGeometry>
        </mxCell>
        <mxCell id="nI7Jx7L9hMB6-QlNPKPZ-17" value="" style="endArrow=none;html=1;rounded=0;" edge="1" parent="1" target="nI7Jx7L9hMB6-QlNPKPZ-3">
          <mxGeometry width="50" height="50" relative="1" as="geometry">
            <mxPoint x="475" y="510" as="sourcePoint" />
            <mxPoint x="525" y="460" as="targetPoint" />
            <Array as="points">
              <mxPoint x="550" y="500" />
            </Array>
          </mxGeometry>
        </mxCell>
      </root>
    </mxGraphModel>
  </diagram>
</mxfile>
